<svg width="107" height="89" viewBox="0 0 107 89" fill="none" xmlns="http://www.w3.org/2000/svg">
<path d="M11.8557 62.899C12.3822 62.09 12.7383 61.402 13.2123 60.8803C15.7055 58.1285 18.5456 55.857 21.3252 53.525C23.5369 51.6692 25.6542 49.6583 27.8591 47.7836C30.4583 45.5989 33.0574 43.4143 35.7343 41.3923C40.2157 38.0059 44.704 34.6384 49.624 32.0424C49.9518 31.8723 50.3031 31.7136 50.587 31.4755C55.0303 27.711 60.108 25.1755 64.9562 22.2164C68.4169 20.1039 71.8808 17.9461 75.6386 16.4462C78.8977 15.1276 81.9636 13.2154 85.0941 11.5376C86.4152 10.831 87.7475 10.4268 89.1563 10.7789C89.265 11.1911 89.4406 11.573 89.3606 11.6751C88.2235 13.2212 87.2982 14.9791 86.1946 16.5101C85.1109 17.9881 83.3752 18.9479 81.7864 19.7755C80.8198 20.2781 79.7986 20.5197 79.0112 21.4685C78.6743 21.8843 77.9537 21.8803 77.3981 22.0654C75.6776 22.5791 73.9805 23.1041 72.6152 24.5556C70.9528 26.3171 69.1286 27.844 66.7186 27.6807C66.4617 28.917 66.5226 30.0098 65.3684 30.5312C64.5153 30.9166 63.8179 31.7369 63.0226 32.3378C62.7318 32.557 62.3411 32.9312 62.1129 32.8366C60.8073 32.2842 60.131 33.3805 59.252 34.0192C58.1424 34.828 57.0328 35.6368 55.8825 36.3321C54.6988 37.0426 53.7271 37.9648 52.8433 39.1329C51.5058 40.8793 49.9258 42.2741 47.8066 42.8141C47.0801 43.0105 46.4126 43.7513 45.7949 44.3599C42.6226 47.4405 39.5108 50.5815 35.6172 52.5162C35.1891 52.7316 34.694 52.9772 34.4004 53.3514C32.7531 55.5893 30.3579 56.7153 28.4274 58.488C26.3934 60.3514 24.6186 62.559 22.6352 64.5094C21.6602 65.4771 20.5339 66.2934 19.3904 67.0077C18.4843 67.5708 17.542 67.3814 16.7745 66.4321C16.1181 65.6303 15.525 64.734 14.7321 64.1477C13.9458 63.5803 12.98 63.3796 11.8557 62.899ZM84.5059 14.7248C84.4672 15.1597 84.4417 15.5227 84.4163 15.8856C84.6174 15.9046 84.8623 15.9916 85.0228 15.8972C85.1766 15.7838 85.2929 15.5116 85.3323 15.296C85.322 15.2129 85.0232 15.0842 84.5059 14.7248Z" fill="black"/>
<path d="M30.4621 75.2916C31.2563 73.4391 32.4005 72.9441 33.5587 72.5967C39.1255 70.9386 44.7401 69.5225 50.2391 67.6753C53.7233 66.4967 57.2943 66.1576 60.8199 65.3117C63.5552 64.6471 64.2459 64.7305 67.0104 65.6124C66.687 66.066 66.4878 66.5953 66.1401 66.8183C65.3009 67.3512 64.4279 67.7895 63.521 68.1333C62.2393 68.6244 61.0855 69.2555 60.2758 70.5219C59.1463 72.3062 57.4237 72.2716 55.7378 72.1765C55.463 72.1689 55.2101 71.734 54.7528 71.3255C54.5445 72.1005 54.3892 72.6979 54.247 73.2234C53.0633 73.9339 51.9569 74.6973 50.7728 75.2981C49.1271 76.1294 47.4439 76.8019 45.7712 77.5576C43.0848 78.7932 40.2195 78.7695 37.3822 79.0409C35.7106 79.2029 34.3214 78.6882 33.0107 77.6329C32.1436 76.9482 31.3666 76.1351 30.4621 75.2916Z" fill="black"/>
<path d="M35.389 21.0544C35.6578 22.185 35.4706 23.2361 34.8573 24.1283C34.2706 24.9864 33.6739 25.871 32.9323 26.5135C31.0548 28.1085 29.9062 30.165 28.856 32.5506C27.603 35.4011 25.6514 37.8204 23.9017 40.4779C21.5351 39.3504 19.5361 37.947 17.2858 36.5473C17.7347 35.5757 17.9462 34.7552 18.4034 34.2412C19.0877 33.4927 19.893 32.8653 20.7592 32.4081C22.8363 31.316 24.208 29.7738 24.6975 27.0705C24.9767 25.5165 25.843 24.1367 27.7981 24.5495C28.4453 24.6745 29.408 23.9979 29.9453 23.3818C31.5105 21.6203 33.3545 20.963 35.4897 21.1187L35.389 21.0544ZM32.8105 24.328C32.9917 24.3999 33.2538 24.589 33.3709 24.5361C33.5314 24.4416 33.5939 24.1278 33.6971 23.9275C33.5091 23.8367 33.247 23.6475 33.1367 23.7193C32.9762 23.8138 32.9069 24.1087 32.8105 24.328Z" fill="black"/>
<path d="M35.5071 21.11C35.4928 20.8528 35.455 20.5843 35.5113 20.3612C35.5345 20.2628 35.7892 20.2136 35.94 20.1456C35.9236 20.2628 35.9207 20.4179 35.8741 20.5049C35.7305 20.7015 35.5566 20.868 35.4063 21.0457C35.3895 21.0533 35.5071 21.11 35.5071 21.11Z" fill="black"/>
<path d="M32.8105 24.329C32.9236 24.1021 32.9694 23.7959 33.1467 23.6939C33.257 23.6221 33.5091 23.8377 33.707 23.902C33.6107 24.1213 33.5413 24.4162 33.3808 24.5107C33.2438 24.6165 32.9985 24.4198 32.8105 24.329Z" fill="white"/>
</svg>
