<svg width="134" height="135" viewBox="0 0 134 135" fill="none" xmlns="http://www.w3.org/2000/svg">
<path d="M20.677 40.8657C25.2429 42.1738 29.2398 44.1763 32.8184 46.9944C33.3034 47.3623 33.7979 47.7817 34.3533 48.0082C36.9189 49.0949 39.494 50.2333 42.1348 51.1456C44.1024 51.8323 45.6985 52.888 47.1725 54.3297C50.3231 57.442 53.8874 60.0065 58.2603 61.2548C58.8581 61.4199 59.4418 61.6837 59.9456 62.0374C63.3781 64.4666 66.7729 66.9241 70.1677 69.3817C70.9117 69.9357 71.524 70.7068 72.3338 71.1523C74.1699 72.1735 75.5215 73.6489 76.544 75.4319C77.5146 77.1072 78.6356 78.5514 80.7675 78.4383C80.6648 79.7497 80.2796 80.8047 80.6378 81.4741C80.9912 82.1764 82.0127 82.5501 82.8272 82.9627C83.5145 83.3245 84.3993 83.3608 84.9737 83.8079C85.6847 84.3575 86.4665 85.118 86.6365 85.9296C86.797 86.6895 86.1952 87.6144 85.9322 88.4007C82.553 88.0759 80.1655 86.0906 77.5668 84.6471C76.4321 84.0065 75.4995 82.7725 74.8257 81.6073C73.9776 80.1331 72.8476 79.3421 71.2707 78.8595C69.9527 78.4455 68.4935 77.9622 67.5469 77.0619C65.7998 75.4153 63.766 74.3673 61.7275 73.2347C60.2492 72.4132 58.8272 71.4315 57.5558 70.336C55.2061 68.3224 52.1088 67.4318 49.9329 65.1398C49.3348 64.5049 48.3464 64.1359 47.4567 63.8976C43.2297 62.6858 39.4117 60.7243 35.9978 57.9286C34.8112 56.9453 33.3377 56.3258 31.9865 55.555C28.352 53.4843 24.6845 51.4091 21.0311 49.3525C19.8635 48.7074 19.1146 47.8339 19.1701 46.3818C19.1885 45.7804 18.9905 45.1664 18.8065 44.571C18.3065 42.8925 18.9788 41.8261 20.677 40.8657Z" fill="black"/>
<path d="M35.3571 92.9901C35.8225 92.1977 36.3067 91.3911 36.7533 90.6129C39.0404 90.4706 41.1627 90.3059 43.2992 90.16C46.11 91.8839 49.2764 90.519 52.2322 91.1051C53.8985 91.4321 55.6538 91.3685 57.3575 91.5496C59.3578 91.771 61.297 92.068 63.2552 92.8205C65.1994 93.5544 67.4352 94.1265 69.6467 93.5713C69.9432 93.4942 70.2679 93.4545 70.5738 93.4289C73.2092 93.3172 74.2358 94.3625 74.1671 97.0878C74.1579 97.3885 74.2099 97.7311 74.1018 98.0184C73.6887 99.5058 73.2567 101.007 72.7402 102.749C69.0649 103.089 65.4319 103.367 61.7275 102.377C58.1172 101.434 54.4036 100.862 50.7182 100.093C49.3485 99.8063 47.9459 99.5152 46.6608 98.9883C45.4227 98.4845 44.1752 98.0467 43.3507 96.6429C42.7288 95.5853 41.1942 95.0413 40.0171 94.2271C39.7352 95.0276 39.5568 95.5738 39.2843 96.3085C37.1335 96.0835 34.9827 95.9758 32.8694 95.6049C31.655 95.4064 30.464 94.9258 29.306 94.4497C28.1008 93.9505 27.4554 92.9401 28.001 92.4103C28.4901 91.9231 29.3133 91.4477 29.9299 91.4811C31.3089 91.5846 32.6598 92.0029 34.006 92.3368C34.4438 92.4466 34.8769 92.7068 35.3053 92.8824C35.0701 93.0015 34.8537 93.1062 34.6184 93.2253C34.9055 93.2139 35.1219 93.1092 35.3571 92.9901Z" fill="black"/>
<path d="M118.951 89.6461C118.747 87.6555 118.53 85.6463 118.326 83.6557C118.274 83.1957 118.288 82.6271 117.996 82.319C116.394 80.4741 116.397 77.8574 115.097 76.0199C112.803 72.7891 111.76 69.0237 109.857 65.6446C108.396 63.0471 106.794 60.6149 105.051 58.2307C103.52 56.127 101.797 54.1984 101.31 51.3641C101.003 49.5105 99.4017 47.9005 98.4451 46.1264C97.7148 44.7689 97.0597 43.3545 96.4187 42.0763C97.7584 39.6243 99.004 37.361 100.221 35.1776C101.972 35.4993 102.331 36.756 102.934 37.8277C104.951 41.4738 107 45.1244 109.017 48.7705C109.846 50.2588 110.6 51.8041 111.359 53.3164C112.405 55.4046 113.489 57.4644 114.465 59.5766C115.52 61.8339 116.618 64.0298 116.926 66.5881C117.125 68.2593 117.799 69.8943 118.374 71.5159C119.911 75.8182 120.446 80.3199 120.863 84.8224C120.963 85.8929 120.917 87.0443 120.607 88.0424C120.419 88.6544 119.572 89.0594 119.012 89.5706L118.951 89.6461Z" fill="black"/>
<path d="M35.357 92.9908C35.1406 93.0956 34.9101 93.1817 34.6749 93.3008C34.9101 93.1817 35.1265 93.0769 35.3617 92.9578L35.357 92.9908Z" fill="white"/>
</svg>
