<svg width="153" height="155" viewBox="0 0 153 155" fill="none" xmlns="http://www.w3.org/2000/svg">
<path d="M3.58663 92.3969C4.76876 97.2333 7.20545 101.324 11.3681 105.275C15.1118 108.827 17.3624 110.126 22.1238 111.505C24.8446 112.308 26.3094 112.443 30.5982 112.223C35.5148 111.97 35.881 112.004 37.5297 113.045C43.8894 117.145 55.3963 116.659 67.0293 111.846C77.5382 107.483 91.8859 97.8165 99.5141 89.9353C102.126 87.2349 102.701 86.4721 102.596 85.9538C102.359 84.997 101.811 85.3656 97.4995 89.2269C87.4665 98.3314 75.8888 105.918 65.8504 109.994C58.1648 113.165 50.3725 114.403 44.5392 113.419C42.2111 112.988 38.4697 111.635 38.4431 111.191C38.4429 111.034 39.5667 110.27 40.9258 109.467C43.8269 107.72 45.1593 106.369 46.4121 104C47.717 101.524 47.6098 99.1199 46.091 97.3123C44.5198 95.5075 43.604 95.0569 41.5378 95.032C39.184 94.9957 37.0668 96.1257 35.134 98.4246C32.5743 101.489 31.9501 104.768 33.2874 107.921C33.6545 108.792 33.8123 109.675 33.6033 109.895C33.0809 110.445 27.3273 110.531 24.6067 109.99C16.6807 108.485 9.40327 102.207 5.78503 93.803C5.05085 92.0599 4.2647 90.6337 4.08162 90.6169C3.4015 90.4947 3.27128 90.9989 3.58663 92.3969ZM38.5856 97.8285C40.1799 96.8825 43.0044 96.8946 44.0517 97.8884C46.0937 99.8262 45.6783 102.676 42.8308 105.624C40.4797 108.102 37.0814 109.585 36.0342 108.592C34.7252 107.349 34.3036 104.49 35.0597 102.278C35.868 100.063 36.7038 99.0249 38.5856 97.8285Z" fill="black"/>
<path d="M57.3207 106.292C58.0014 106.938 62.2903 106.666 65.7154 105.783C70.2386 104.582 73.7149 102.649 78.7318 98.4631C81.0312 96.5644 81.8147 95.529 81.2911 95.0321C80.8722 94.6346 79.6698 95.2201 76.1939 97.5197C70 101.582 65.1117 103.797 60.1697 104.653C57.3195 105.14 56.5877 105.597 57.3207 106.292Z" fill="black"/>
<path d="M109.209 57.5937C109.288 58.2967 110.415 60.4125 112.668 64.1202L114.24 66.7631L111.657 72.7355C108.683 79.5921 108.423 80.4959 109.129 81.1667C109.967 81.9617 111.536 81.2527 115.769 78.1024C117.99 76.4433 119.976 75.032 120.238 74.9662C120.787 74.8071 122.96 76.8691 126.286 80.7576C129.402 84.3948 129.794 84.558 131.44 82.8237C132.015 82.2181 135.043 77.0347 138.123 71.3248C141.255 65.6123 144.413 59.9246 145.197 58.6274C146.867 55.8705 147.232 54.4376 146.447 53.9018C146.107 53.6836 143.805 53.7493 141.242 54.038C138.68 54.3266 132.953 54.6467 128.507 54.7178C114.933 54.9692 113.835 55.0256 112.187 55.2411C110.54 55.4566 109.129 56.5765 109.209 57.5937ZM118.885 57.0971C122.415 57.0469 127.594 56.9382 130.366 56.8483C133.138 56.7584 135.57 56.7645 135.753 56.8337C136.093 56.9472 134.211 57.777 122.709 62.5574C117.638 64.6508 115.99 65.1805 115.755 64.7998C113.134 60.2729 111.903 57.7959 112.164 57.5206C112.321 57.3554 115.328 57.1749 118.885 57.0971ZM129.142 62.0177C139.233 58.1478 140.906 57.6429 139.208 59.0657C133.512 63.8099 123.607 70.839 120.026 72.6726C118.745 73.3406 116.733 74.57 115.531 75.4697C114.329 76.317 113.153 77.0844 112.917 77.1227C112.682 77.1609 113.02 75.7033 113.698 73.9401C114.324 72.1796 115.08 69.9672 115.341 69.0634L115.836 67.4406L117.666 66.561C118.711 66.0884 123.861 64.0171 129.142 62.0177ZM125.831 71.4319C128.157 69.9246 139.838 61.3902 140.57 60.6194C141.275 59.9285 140.466 61.7246 138.404 65.5229C137.203 67.6795 134.959 72.0895 133.393 75.3124C131.854 78.5077 130.444 81.2512 130.288 81.4163C130 81.7192 129.11 80.8221 124.371 75.435C123.48 74.4332 122.878 73.4952 123.034 73.33C123.165 73.1923 124.446 72.3148 125.831 71.4319Z" fill="black"/>
</svg>
