<svg width="298" height="275" viewBox="0 0 298 275" fill="none" xmlns="http://www.w3.org/2000/svg">
<path d="M43.0391 151.102C44.7551 151.042 46.4952 150.964 48.2297 150.931C51.898 150.846 55.5329 150.507 59.2182 150.808C61.3663 150.968 63.8345 152.06 64.212 155.135C64.5616 157.912 62.9649 159.28 60.7714 159.826C59.0538 160.245 57.2364 160.414 55.4689 160.709C45.1591 162.392 34.8123 164.021 24.534 165.802C21.3975 166.356 18.2226 167.215 15.5307 163.736C12.7834 160.176 14.5594 157.217 15.9868 154.417C21.4422 143.669 26.8736 132.937 32.3475 122.215C32.9553 121.046 33.5632 119.877 34.2504 118.773C36.3011 115.548 38.0496 114.711 40.1138 115.88C42.1779 117.05 42.7447 119.322 41.3663 123.12C39.778 127.537 37.8612 131.783 36.1086 136.114C35.5288 137.581 35.0338 139.07 34.4724 140.564L35.3794 141.532C36.9067 140.886 38.5872 140.413 39.9667 139.55C87.7442 110.22 141.928 99.33 200.856 102.699C227.692 104.215 254.436 110.951 280.726 122.322C285.005 124.162 289.087 126.691 293.245 128.971C294.188 129.477 295.296 130.07 295.911 130.92C296.601 131.878 297.412 133.426 297.175 134.263C296.973 134.996 295.379 135.648 294.469 135.396C291.612 134.61 288.78 133.448 285.996 132.254C261.239 121.582 236.12 114.807 210.719 111.995C187.758 109.461 165.375 110.658 143.342 113.601C121.665 116.5 100.69 121.457 80.8428 129.455C68.9583 134.237 57.6007 140.048 46.657 146.568C45.1872 147.453 43.8282 148.5 42.4138 149.466C42.6266 150.035 42.8393 150.604 43.0336 151.146L43.0391 151.102Z" fill="#1A1A1C"/>
</svg>
