<svg width="37" height="32" viewBox="0 0 37 32" fill="none" xmlns="http://www.w3.org/2000/svg">
<path d="M18.1861 0.952187C17.5092 1.48455 16.2037 3.17843 15.3334 4.67873L13.7378 7.43733L8.51583 7.82451C2.42356 8.30847 1.16642 8.69564 0.441149 10.2927C-0.429176 12.1802 0.247743 13.4869 3.82575 17.1167C5.71145 18.9557 7.25869 20.7948 7.25869 21.1336C7.25869 21.4723 6.67848 23.6986 6.00156 26.0216C5.27629 28.3931 4.84112 30.7161 5.03453 31.1517C5.46969 32.3616 7.25869 31.8776 11.8521 29.2642C13.9795 28.0543 15.9619 27.038 16.2037 27.038C16.4938 27.038 17.9927 27.7155 19.5883 28.4899C22.9729 30.1353 24.6168 30.2805 26.1641 29.0222C27.1311 28.2479 27.3245 27.5703 27.4696 24.4729L27.663 20.7948L30.6608 18.9073C34.5289 16.3423 36.1728 14.842 36.5596 13.2449C37.1398 10.8251 34.1421 9.17961 29.1619 9.13121C26.2124 9.13121 24.7619 8.40526 24.3751 6.85657C23.8432 4.67873 22.441 1.62974 21.5223 0.7586C20.4586 -0.306126 19.7333 -0.257729 18.1861 0.952187ZM19.8301 7.48573C19.8301 7.8729 19.4916 8.16328 19.1048 8.16328C18.2828 8.16328 18.2345 8.06649 18.6696 7.00176C19.0081 6.13062 19.8301 6.42101 19.8301 7.48573ZM11.1268 12.761C11.1268 13.3901 9.96637 15.9067 9.67626 15.9067C9.09605 15.9067 6.29167 13.4869 6.29167 13.0029C6.29167 12.761 6.77518 12.519 7.40375 12.4222C8.41913 12.277 11.1268 12.519 11.1268 12.761ZM19.9751 12.9545C21.2322 13.4385 21.474 13.9709 22.0059 16.8747C22.296 18.5202 22.2476 18.6169 19.685 20.0205L17.0257 21.424L15.0916 20.1172L13.1092 18.8105L13.8345 16.7295C15.14 12.9545 16.9773 11.8414 19.9751 12.9545ZM29.6937 14.1645C29.4036 14.9388 27.1795 16.0035 26.5992 15.6648C26.4058 15.568 26.1157 14.9872 25.9707 14.4548C25.7289 13.5837 25.9707 13.4869 27.8564 13.4869C29.4036 13.4869 29.8871 13.6321 29.6937 14.1645ZM11.6103 23.8438C11.6103 23.989 11.4169 24.231 11.1268 24.3761C10.885 24.5213 10.6433 24.4245 10.6433 24.1826C10.6433 23.8922 10.885 23.6502 11.1268 23.6502C11.4169 23.6502 11.6103 23.747 11.6103 23.8438Z" fill="black"/>
</svg>
