<svg width="32" height="38" viewBox="0 0 32 38" fill="none" xmlns="http://www.w3.org/2000/svg">
<path d="M5.37103 7.72819C5.3427 8.58891 5.79865 10.6783 6.38656 12.3101L7.47058 15.3069L4.4055 19.5524C0.854269 24.5262 0.341345 25.7374 1.0967 27.3205C1.98091 29.2015 3.41664 29.5246 8.49756 29.1229C11.1188 28.8637 13.5222 28.8634 13.7814 29.0815C14.0407 29.2995 15.3709 31.1766 16.7129 33.19C18.0609 35.2715 19.5585 37.0999 20.0163 37.2322C21.2224 37.678 22.0036 35.9974 22.9604 30.7999C23.4039 28.393 23.9022 26.2217 24.0578 26.0367C24.2446 25.8147 25.7279 25.1038 27.3476 24.3811C30.7855 22.8502 31.9548 21.6856 31.9878 19.6915C32.0177 18.453 31.6237 17.8689 29.3467 15.7641L26.6564 13.2485L27.1416 9.73935C27.6686 5.12807 27.5787 2.90425 26.6054 1.58019C25.1271 -0.421484 21.9381 0.813456 18.6954 4.59353C16.7968 6.85067 15.3075 7.49344 13.8734 6.79256C11.8644 5.79771 8.62844 4.90814 7.37042 5.05043C5.87089 5.17911 5.44107 5.7653 5.37103 7.72819ZM11.4292 10.6758C11.7255 10.925 11.7299 11.3709 11.4809 11.6669C10.9518 12.296 10.8466 12.2707 10.3119 11.2523C9.86308 10.4325 10.6144 9.9904 11.4292 10.6758ZM9.86394 20.7318C10.3454 21.1368 11.5244 23.6448 11.3376 23.8668C10.9641 24.3109 7.30712 24.8993 6.93675 24.5878C6.75156 24.4321 6.87762 23.9063 7.20815 23.3629C7.75064 22.4924 9.67876 20.5761 9.86394 20.7318ZM15.7077 14.085C16.8873 13.4345 17.4504 13.5922 20.0149 15.0543C21.4609 15.8915 21.5039 15.9908 20.9284 18.8554L20.2906 21.7939L18.0457 22.4329L15.7696 23.1089L14.6439 21.2142C12.5954 17.7853 12.9262 15.6627 15.7077 14.085ZM22.8896 7.42641C23.2954 8.14687 22.6785 10.5343 22.0458 10.7603C21.8472 10.846 21.216 10.6942 20.7152 10.4625C19.893 10.0868 19.9745 9.83944 21.1883 8.39635C22.1843 7.21228 22.6066 6.93572 22.8896 7.42641ZM18.6566 27.4958C18.7677 27.5893 18.8284 27.8931 18.7528 28.2085C18.7083 28.487 18.4786 28.6097 18.2934 28.4539C18.0712 28.267 18.0416 27.9262 18.1972 27.7412C18.384 27.5192 18.5825 27.4335 18.6566 27.4958Z" fill="black"/>
</svg>
