<svg width="131" height="63" viewBox="0 0 131 63" fill="none" xmlns="http://www.w3.org/2000/svg">
<path d="M49.7721 0.605004C48.7593 0.69345 47.0235 1.33944 45.8991 2.00598C44.1814 3.02006 43.6852 3.66178 42.555 6.288C41.4132 8.80665 41.2575 9.78136 41.4174 12.2672L41.6522 15.2455L37.9582 15.887C33.2461 16.7698 27.3207 16.8922 21.2517 16.2901C17.3171 15.9128 15.3745 15.4494 10.3264 13.6261C6.97231 12.3803 3.7594 11.0321 3.17539 10.6603C2.60823 10.2431 1.77551 9.98548 1.32865 10.0776C0.587754 10.2671 0.554052 10.3578 0.991632 10.985C2.24742 12.7421 5.07042 14.3069 10.617 16.3154C15.5576 18.1504 17.3473 18.6087 21.9217 19.0687C28.0192 19.733 33.8087 19.5601 39.3186 18.6122C43.1033 18.0045 43.1033 18.0045 43.8709 19.2705C45.1447 21.3957 49.2375 25.6521 52.2209 27.8959C57.6322 32.0741 63.5478 34.4778 75.5208 37.376L77.8882 37.9456L78.3717 40.8098C79.7008 48.4796 87.819 57.1738 96.7482 60.4903C103.139 62.8641 112.355 63.6026 121.804 62.4655C127.088 61.847 130.454 60.9801 130.757 60.1635C131.026 59.4376 129.973 59.3563 123.245 59.6966C111.169 60.2707 105.756 59.706 98.9574 57.1807C91.3427 54.3525 86.1115 49.8281 83.2355 43.5456C80.8436 38.3205 80.9901 38.0652 86.163 38.0247C98.8349 37.93 108.637 31.8133 107.033 25.0223C106.019 20.6703 101.808 18.5383 95.3177 19.0704C90.9153 19.3971 85.9749 21.589 82.9382 24.488C81.1996 26.1139 80.3262 27.4932 79.0496 30.3748L77.3622 34.0847L74.0947 33.439C72.3165 33.0883 68.5155 31.9347 65.6147 30.8572C57.6373 27.8943 51.9837 24.0907 48.2629 19.2497L46.6096 17.0352L49.5824 15.558C52.9905 13.8811 56.2307 10.8512 57.0732 8.58274C57.8146 6.58653 57.2573 3.64329 55.9353 2.48111C54.4656 1.16086 51.8147 0.382736 49.7721 0.605004ZM54.3385 6.22471C54.3391 8.44491 51.608 11.3542 48.0808 12.9352C45.6896 13.9573 45.2701 13.6982 44.9574 11.2072C44.6215 8.50108 46.4292 5.30047 48.7867 4.36915C51.376 3.36906 54.3106 4.35576 54.3385 6.22471ZM103.332 24.9897C103.747 25.8152 103.943 26.817 103.791 27.2254C102.797 29.9021 97.1462 33.1726 92.1906 34.0166C89.481 34.5073 82.9558 34.7168 82.0493 34.3801C81.7774 34.279 82.0342 33.0321 82.5734 31.5803C84.3764 26.7259 89.6864 23.1224 95.95 22.5062C100.064 22.1238 102.409 22.8917 103.332 24.9897Z" fill="black"/>
</svg>
