<svg width="78" height="44" viewBox="0 0 78 44" fill="none" xmlns="http://www.w3.org/2000/svg">
<path d="M76.2501 28.8758C75.6252 29.1377 73.0532 31.2644 70.4854 33.6514C67.9175 36.0385 65.1597 38.3478 64.3304 38.7479L62.8056 39.4919L59.2915 31.1086C55.8149 22.8144 55.7588 22.6806 54.3324 22.2824C51.3977 21.4154 49.1858 23.0241 41.3995 31.7403C38.6356 34.7863 36.1945 37.2251 36.0045 37.1474C35.8145 37.0698 35.688 30.884 35.7751 23.4552C35.8436 15.9818 35.8167 9.2824 35.6961 8.49409C35.267 5.84289 32.3571 4.28399 29.8576 5.3317C28.1168 6.06136 25.6394 9.03963 17.1508 20.4619C12.4275 26.8457 7.88578 32.7863 7.00873 33.5734C3.93962 36.6424 3.59366 34.6903 5.04703 21.1315C6.8072 4.29853 6.8096 -0.578211 4.96929 0.665034C4.10674 1.2363 3.56421 3.82294 1.93197 15.2023C-0.465641 31.5161 -0.0755128 37.3293 3.49361 39.0837C6.20212 40.4124 9.24528 37.4067 19.5979 23.4206C30.099 9.16257 31.0352 8.14102 31.6894 9.70175C31.8763 10.1477 31.9227 15.2661 31.7917 21.088C31.464 37.5827 31.7863 40.8554 33.955 42.1482C35.6431 43.1708 37.6692 41.7448 43.3195 35.4443C50.2516 27.8201 52.1022 26.1007 52.9254 26.4372C53.3687 26.6184 54.2098 28.625 55.5537 32.8326C58.8064 42.8459 60.6451 44.8538 64.9746 43.039C67.8758 41.8229 69.7524 40.0402 74.1644 34.4161C77.7928 29.802 78.4371 27.9591 76.2501 28.8758Z" fill="black"/>
</svg>
