<svg width="356" height="208" viewBox="0 0 356 208" fill="none" xmlns="http://www.w3.org/2000/svg">
<path d="M180.844 181.835C181.9 178.743 183.206 175.747 183.892 172.475C184.349 171.095 183.282 169.438 182.139 170.129C181.344 170.653 181.225 171.923 180.909 172.89C180.332 175.623 179.047 178.052 178.601 180.841C178.275 182.47 180.332 183.367 180.844 181.835Z" fill="#1A1A1C"/>
<path d="M175.15 185.948C173.801 187.025 172.57 188.323 171.188 189.344C170.404 190.021 169.239 190.725 169.326 192.147C169.316 193.127 170.263 193.955 170.959 193.417C172.723 192.064 174.53 190.752 176.185 189.179C176.816 188.544 177.567 187.563 177.208 186.459C176.903 185.382 175.771 185.244 175.15 185.948Z" fill="#1A1A1C"/>
<path d="M161.064 197.379C161.989 197.117 163.045 197.062 163.796 196.233C164.45 195.35 164.047 193.652 163.034 193.555C162.131 193.541 161.26 193.804 160.389 194.025C158.658 194.549 156.84 194.784 155.207 195.709C154.119 196.288 154.239 198.566 155.469 198.773C157.33 198.345 159.17 197.697 161.064 197.379Z" fill="#1A1A1C"/>
<path d="M145.421 196.274C143.886 196.246 142.319 195.832 140.816 196.329C140.054 196.619 139.564 197.765 139.978 198.69C140.392 199.822 141.513 199.311 142.308 199.449C144.507 199.352 146.706 200.181 148.894 199.753C150.037 199.518 150.374 197.254 149.231 196.716C148.001 196.233 146.684 196.412 145.421 196.274Z" fill="#1A1A1C"/>
<path d="M134.154 200.222C135.167 199.78 135.156 197.516 134.045 197.282C132.184 197.102 130.29 197.116 128.45 197.461C127.546 197.585 126.512 198.566 126.882 199.849C127.22 201.299 128.548 200.678 129.419 200.678C130.986 200.415 132.641 200.871 134.154 200.222Z" fill="#1A1A1C"/>
<path d="M117.346 205.469C118.544 204.599 119.948 204.295 121.146 203.412C121.777 202.915 121.755 201.673 121.298 201.024C120.656 200.361 119.785 200.623 119.077 200.858C117.02 201.742 114.973 203.012 113.428 204.972C112.578 205.966 113.068 207.898 114.244 207.967C115.365 207.319 116.225 206.145 117.346 205.469Z" fill="#1A1A1C"/>
<path d="M171.297 151.609C169.767 151.952 168.192 152.154 166.689 152.577C165.375 152.948 163.951 153.014 162.659 153.424C162.722 153.965 163.346 154.323 164.037 154.543C168.185 155.974 172.621 157.101 176.762 158.545C177.888 158.856 177.711 159.79 177.892 160.471C178.097 162.704 178.965 164.837 179.67 166.995C180.338 168.839 180.97 170.698 181.899 172.482C182.121 172.957 182.618 173.336 183.164 173.661C183.585 173.234 183.996 172.803 184.525 172.423C187.461 170.271 190.858 168.354 193.468 166.021C195.426 166.648 197.177 167.487 199.11 168.139C199.718 167.962 200.086 167.56 200.492 167.235C203.805 164.202 207.626 161.404 211.361 158.581C211.413 158.469 211.516 158.238 211.567 158.126C213.02 157.12 214.333 156.023 215.876 155.071C218.882 153.211 221.522 151.129 224.271 149.122C228.07 145.973 232.718 143.291 236.853 140.333C237.291 139.975 237.32 139.512 237.504 139.107C236.903 139.101 236.285 139.108 235.674 139.179C226.939 140.322 218.416 142.331 209.782 143.857C196.851 146.091 183.929 148.478 171.297 151.609ZM184.026 171.556C184.242 169.998 184.511 168.428 184.423 166.877C184.355 165.505 184.251 164.144 184.248 162.765C186.909 163.722 189.569 164.673 192.247 165.61C189.184 167.388 186.593 169.488 184.026 171.556ZM221.878 148.959C216.894 152.559 211.821 156.11 206.975 159.782C204.891 161.399 202.896 163.058 201.095 164.801C200.405 165.465 199.678 166.116 198.901 166.743C194.22 165.026 189.26 163.606 184.671 161.802C188.756 159.362 193.072 157.09 197.126 154.619C199.575 153.13 202.144 151.71 204.463 150.131C205.026 149.806 205.21 149.331 205.372 148.893C203.803 149.141 202.384 149.731 200.936 150.224C193.592 152.915 185.996 155.269 178.73 158.074C176.469 157.141 173.928 156.506 171.51 155.733C169.551 155.096 167.559 154.491 165.633 153.814C170.742 152.08 176.253 151.177 181.631 150.084C190.485 148.296 199.401 146.731 208.342 145.293C216.848 143.929 225.206 142.016 233.748 140.801C229.739 143.491 225.719 146.171 221.878 148.959Z" fill="black"/>
<path d="M205.451 155.115C207.113 155.741 208.793 156.358 210.618 156.799C209.388 155.841 207.665 154.851 205.451 155.115Z" fill="black"/>
<path d="M202.228 157.018C203.764 157.834 205.569 158.573 207.694 158.655C206.131 157.853 204.386 157.066 202.228 157.018Z" fill="black"/>
<path d="M205.47 159.627C203.733 159.311 202.027 158.862 200.132 158.924C201.614 159.594 203.567 159.867 205.47 159.627Z" fill="black"/>
<path d="M113.23 85.9433C114.043 84.9902 115.049 84.0668 115.577 83.0584C115.929 82.6329 115.107 82.1223 114.227 82.335C113.616 82.4967 113.523 82.8882 113.28 83.186C112.836 84.0285 111.847 84.7774 111.504 85.6369C111.252 86.139 112.836 86.4156 113.23 85.9433Z" fill="#1A1A1C"/>
<path d="M108.847 87.2121C107.808 87.544 106.861 87.944 105.797 88.2588C105.193 88.4673 104.296 88.6843 104.363 89.1226C104.355 89.4247 105.084 89.68 105.621 89.5141C106.978 89.0971 108.369 88.6928 109.643 88.2078C110.129 88.012 110.708 87.7099 110.431 87.3695C110.196 87.0376 109.325 86.9951 108.847 87.2121Z" fill="#1A1A1C"/>
<path d="M98.0026 90.7335C98.7149 90.6526 99.5279 90.6356 100.106 90.3803C100.609 90.108 100.299 89.5846 99.5195 89.5548C98.8239 89.5506 98.1534 89.6314 97.483 89.6995C96.1505 89.8612 94.7509 89.9335 93.4938 90.2186C92.6558 90.3973 92.7479 91.0994 93.6949 91.1632C95.128 91.0313 96.5444 90.8313 98.0026 90.7335Z" fill="#1A1A1C"/>
<path d="M85.9597 90.3939C84.778 90.3854 83.5712 90.2577 82.4147 90.4109C81.8281 90.5002 81.4509 90.8534 81.7694 91.1385C82.0879 91.4874 82.9511 91.33 83.5629 91.3725C85.2557 91.3427 86.9486 91.598 88.6331 91.4661C89.5131 91.3938 89.7729 90.696 88.8929 90.53C87.9459 90.3811 86.9318 90.4364 85.9597 90.3939Z" fill="#1A1A1C"/>
<path d="M77.2858 91.6113C78.0652 91.4751 78.0568 90.7773 77.202 90.705C75.7689 90.6497 74.3107 90.6539 72.8944 90.7603C72.1988 90.7986 71.4026 91.1007 71.6875 91.4964C71.9473 91.9432 72.9698 91.7517 73.6402 91.7517C74.847 91.6709 76.1209 91.8113 77.2858 91.6113Z" fill="#1A1A1C"/>
<path d="M64.3461 93.2282C65.268 92.9601 66.3491 92.8665 67.271 92.5942C67.7571 92.441 67.7403 92.058 67.3883 91.8581C66.8938 91.6538 66.2234 91.7347 65.6787 91.807C64.0947 92.0793 62.5192 92.4708 61.3291 93.075C60.6755 93.3813 61.0526 93.977 61.9577 93.9983C62.8209 93.7983 63.4829 93.4367 64.3461 93.2282Z" fill="#1A1A1C"/>
<path d="M107.106 67.8737C106.29 68.0948 105.447 68.2067 104.648 68.4887C103.949 68.7366 103.183 68.7496 102.498 69.0274C102.546 69.4399 102.891 69.7277 103.269 69.9129C105.543 71.1087 107.963 72.0805 110.233 73.2858C110.848 73.5511 110.777 74.2563 110.892 74.7778C111.061 76.48 111.585 78.1228 112.021 79.7802C112.429 81.1982 112.818 82.6274 113.365 84.0066C113.497 84.3734 113.775 84.6737 114.078 84.935C114.294 84.6221 114.504 84.3053 114.779 84.0305C116.305 82.4722 118.086 81.1044 119.432 79.4008C120.504 79.9276 121.47 80.6106 122.529 81.1569C122.851 81.0383 123.04 80.7421 123.25 80.5063C124.956 78.2885 126.943 76.2629 128.883 74.2158C128.907 74.132 128.957 73.9599 128.982 73.876C129.738 73.1493 130.418 72.3507 131.224 71.6677C132.796 70.3333 134.164 68.8204 135.594 67.3678C137.559 65.0749 139.994 63.1588 142.146 61.0195C142.373 60.7592 142.376 60.4081 142.465 60.1056C142.141 60.0849 141.808 60.0744 141.48 60.1125C136.802 60.7529 132.261 62.0562 127.647 62.9903C120.735 64.3499 113.833 65.8253 107.106 67.8737ZM114.488 83.3586C114.563 82.1809 114.668 80.9954 114.579 79.8143C114.507 78.7708 114.416 77.7339 114.378 76.6864C115.837 77.4826 117.296 78.2744 118.763 79.0563C117.159 80.327 115.817 81.8547 114.488 83.3586ZM134.3 67.1816C131.707 69.786 129.066 72.3511 126.55 75.014C125.469 76.1877 124.436 77.3961 123.511 78.673C123.157 79.1594 122.782 79.6348 122.379 80.0909C119.812 78.6642 117.101 77.4564 114.581 75.9658C116.719 74.2192 118.986 72.6059 121.106 70.8344C122.388 69.7677 123.735 68.7563 124.944 67.6172C125.239 67.3849 125.326 67.0286 125.401 66.7006C124.562 66.848 123.813 67.2591 123.045 67.596C119.157 69.4479 115.124 71.038 111.281 72.9791C110.038 72.2115 108.652 71.6629 107.329 71.0127C106.256 70.477 105.167 69.9657 104.111 69.4011C106.819 68.2173 109.766 67.6756 112.636 66.9855C117.362 65.8585 122.127 64.9023 126.908 64.0431C131.457 63.229 135.912 61.9942 140.485 61.2943C138.394 63.2331 136.297 65.1637 134.3 67.1816Z" fill="black"/>
<path d="M125.607 71.4278C126.519 71.9462 127.44 72.4591 128.435 72.842C127.747 72.0815 126.793 71.2848 125.607 71.4278Z" fill="black"/>
<path d="M123.919 72.7891C124.768 73.4497 125.76 74.0578 126.907 74.1756C126.044 73.5255 125.083 72.8824 123.919 72.7891Z" fill="black"/>
<path d="M125.734 74.8572C124.79 74.5718 123.859 74.1859 122.839 74.1836C123.655 74.7312 124.715 74.9896 125.734 74.8572Z" fill="black"/>
<path d="M185.376 102.298C188.261 95.7064 191.83 89.321 193.704 82.3472C194.953 79.4047 192.038 75.8737 188.915 77.345C186.744 78.4631 186.417 81.1703 185.554 83.23C183.978 89.0563 180.468 94.2352 179.248 100.179C178.356 103.651 183.978 105.564 185.376 102.298Z" fill="#1A1A1C"/>
<path d="M169.819 111.067C166.131 113.362 162.77 116.128 158.992 118.306C156.851 119.748 153.668 121.248 153.906 124.279C153.876 126.368 156.464 128.134 158.368 126.986C163.186 124.103 168.124 121.307 172.645 117.953C174.37 116.599 176.423 114.51 175.441 112.156C174.608 109.861 171.515 109.566 169.819 111.067Z" fill="#1A1A1C"/>
<path d="M131.33 135.431C133.858 134.872 136.743 134.754 138.796 132.989C140.58 131.106 139.48 127.486 136.714 127.28C134.245 127.251 131.865 127.81 129.486 128.281C124.756 129.399 119.789 129.899 115.327 131.871C112.353 133.107 112.68 137.962 116.041 138.403C121.128 137.491 126.154 136.108 131.33 135.431Z" fill="#1A1A1C"/>
<path d="M88.5872 133.076C84.3932 133.018 80.1101 132.135 76.0054 133.194C73.9233 133.812 72.5847 136.254 73.715 138.226C74.8453 140.639 77.909 139.55 80.0803 139.844C86.0887 139.638 92.0971 141.404 98.0757 140.492C101.199 139.991 102.121 135.166 98.9978 134.018C95.6366 132.988 92.0376 133.371 88.5872 133.076Z" fill="#1A1A1C"/>
<path d="M57.8015 141.493C60.5678 140.551 60.5381 135.725 57.5042 135.225C52.4179 134.842 47.2423 134.872 42.2155 135.607C39.7467 135.872 36.921 137.962 37.9323 140.698C38.8544 143.788 42.4832 142.464 44.8628 142.464C49.146 141.905 53.6671 142.876 57.8015 141.493Z" fill="#1A1A1C"/>
<path d="M11.8761 152.674C15.148 150.82 18.9852 150.172 22.2571 148.289C23.9823 147.23 23.9226 144.582 22.6734 143.199C20.9184 141.786 18.5389 142.345 16.6056 142.845C10.9839 144.729 5.3919 147.436 1.16819 151.614C-1.15188 153.733 0.18662 157.852 3.39902 158C6.4627 156.617 8.81244 154.115 11.8761 152.674Z" fill="#1A1A1C"/>
<path d="M164.098 15.605C159.644 16.1289 155.112 16.185 150.711 16.9709C146.859 17.6632 142.799 17.3451 139 18.1684C139 19.9085 140.65 21.2744 142.537 22.2287C153.828 28.3098 166.037 33.5301 177.302 39.6486C180.393 41.052 179.581 43.9522 179.869 46.1788C179.712 53.3451 181.467 60.4366 182.751 67.5468C184.035 73.6466 185.214 79.7838 187.257 85.79C187.729 87.3805 189.012 88.7651 190.453 90C191.789 88.8025 193.099 87.5863 194.724 86.5759C203.762 80.8316 214.032 76.0042 222.206 69.5676C227.55 72.2807 232.24 75.5925 237.505 78.3805C239.287 78.0437 240.466 76.9023 241.723 76.0229C252.124 67.6216 263.887 60.1559 275.414 52.578C275.598 52.2412 275.964 51.5489 276.148 51.2121C280.601 48.5551 284.688 45.5613 289.378 43.1102C298.521 38.3202 306.695 32.6882 315.157 27.3368C326.972 18.7484 341.041 11.9563 353.747 4.09769C355.109 3.12472 355.345 1.66526 356 0.449046C354.297 0.205803 352.542 0 350.787 0C325.636 0.392931 300.8 3.61122 275.807 5.25779C238.396 7.55925 200.959 10.3472 164.098 15.605ZM193.597 83.6383C194.724 78.7734 196.007 73.8898 196.269 68.9314C196.531 64.553 196.689 60.1933 197.134 55.815C204.365 59.8378 211.595 63.842 218.878 67.8087C209.604 72.3181 201.561 78.025 193.597 83.6383ZM308.424 25.9335C293.098 35.5135 277.536 44.9064 262.577 54.7671C256.132 59.1268 249.923 63.6549 244.238 68.5198C242.064 70.3721 239.785 72.1684 237.374 73.8711C224.668 66.6861 211.071 60.343 198.653 52.9148C211.045 46.684 224.039 41.0707 236.353 34.7277C243.793 30.9106 251.548 27.3555 258.647 23.2017C260.35 22.3784 261.031 20.9376 261.634 19.6091C257.102 19.815 252.884 21.1622 248.613 22.1913C226.895 28.0104 204.574 32.6694 183.039 38.8815C176.935 35.0832 169.94 32.1268 163.338 28.7775C157.994 26.027 152.545 23.3701 147.305 20.5073C162.369 16.896 178.297 16.0727 193.911 14.5946C219.612 12.1996 245.417 10.5343 271.249 9.28065C295.823 8.10186 320.161 5.12681 344.787 4.4345C332.526 11.4886 320.239 18.5052 308.424 25.9335Z" fill="black"/>
<path d="M259.8 39.3868C264.306 41.9876 268.865 44.5698 273.895 46.6467C270.725 43.1477 266.166 39.3681 259.8 39.3868Z" fill="black"/>
<path d="M250.028 44.2324C254.115 47.3946 258.988 50.4071 264.987 51.4549C260.822 48.3301 256.132 45.1867 250.028 44.2324Z" fill="black"/>
<path d="M258.359 53.7197C253.539 52.0732 248.849 50.015 243.452 49.5098C247.435 52.1854 252.884 53.7759 258.359 53.7197Z" fill="black"/>
</svg>
