<svg width="95" height="109" viewBox="0 0 95 109" fill="none" xmlns="http://www.w3.org/2000/svg">
<path d="M72.8104 1.94249C72.0931 2.45475 69.2788 4.88902 66.5937 7.31826L61.6839 11.7229L58.3142 10.1595C53.7634 8.06115 47.0111 5.9034 45.1156 5.97738C44.1247 6.01605 43.3167 6.38656 42.8193 7.03552C41.6596 8.58198 42.6598 10.2378 49.0453 17.2525C52.2164 20.7607 54.7279 23.8588 54.6523 24.2007C54.5751 24.4943 52.8183 26.2577 50.7629 28.1297C48.7075 30.0017 46.3671 32.4175 45.537 33.4668C44.0431 35.3653 44.0431 35.3653 43.9557 40.8893C43.8055 49.9508 40.8795 61.2998 36.6378 69.1651C30.9708 79.7494 20.852 91.4275 9.57371 100.488C4.48261 104.609 3.19365 106.16 3.71103 107.544C4.36816 109.262 8.97725 107.678 21.0378 101.59C29.7431 97.1822 42.8783 88.195 51.5723 80.6402C60.3924 72.9837 68.8165 62.2917 71.9457 54.712C72.4667 53.4326 73.371 51.993 73.919 51.5842C74.8858 50.7716 75.4349 49.0069 77.2623 39.7831L78.0454 35.83L80.529 35.2488C85.1501 34.0515 89.8809 32.2204 90.7571 31.2661C91.2575 30.7139 91.6168 29.7798 91.5973 29.151C91.5522 27.7 90.4082 26.9698 82.929 23.6298C79.8669 22.2481 77.151 20.9013 76.9296 20.7162C76.6621 20.4361 76.6182 17.6291 76.8383 13.6012C77.1718 6.27587 76.7116 2.56504 75.3862 1.5514C74.3699 0.767828 74.3699 0.767828 72.8104 1.94249ZM74.3664 9.00036C74.4309 11.0802 74.3712 14.7144 74.2278 17.0445L74.0152 21.3142L75.3065 22.6198C76.0614 23.3167 78.9571 24.8986 81.7116 26.0986C86.8716 28.3669 88.4955 29.272 88.1213 29.7225C87.9951 29.8243 85.522 30.744 82.5735 31.6339C77.0657 33.4469 75.6295 34.4231 75.2752 36.9066C74.6644 40.853 73.4438 47.3897 73.1232 48.177C72.761 49.0144 72.6733 48.9694 71.8589 47.7421C71.361 46.9867 69.8063 44.1418 68.3838 41.3886C66.9613 38.6355 65.2357 35.8457 64.5655 35.097C63.0959 33.6048 61.4113 33.5252 55.1131 34.8848C50.6137 35.8353 47.3873 36.1065 47.3693 35.5261C47.3633 35.3326 49.6205 33.0169 52.3873 30.4392C56.6629 26.4467 57.4113 25.5458 57.3768 24.4333C57.3243 22.7405 55.8812 20.7145 50.6503 14.7686C46.9843 10.6017 46.0822 9.32946 46.7715 9.30256C46.9007 9.29752 50.2598 10.5223 54.1865 11.9671L61.3446 14.6902L64.2125 12.5928C65.7734 11.4665 68.5076 9.22902 70.1858 7.71075C71.9055 6.14242 73.5496 4.91604 73.768 5.00437C74.0726 5.08933 74.2959 6.72709 74.3664 9.00036ZM60.0859 42.2452C55.0677 61.2303 43.9864 78.0307 28.5718 90.0124C24.7401 93.0191 18.2229 97.0507 18.2034 96.4219C18.2004 96.3252 20.373 94.0612 23.006 91.3435C29.1111 85.1488 35.0033 77.655 38.1925 72.0099C43.1396 63.2455 46.1386 52.8621 46.2102 44.0458L46.3081 38.8604L49.5807 38.6843C51.39 38.6137 54.612 38.1974 56.7124 37.7764C58.8559 37.3538 60.7484 37.183 60.9267 37.3698C61.1466 37.5065 60.7417 39.7499 60.0859 42.2452ZM65.6537 42.3669C66.2051 43.4591 67.5726 45.8271 68.6635 47.6247C69.7975 49.4206 70.7101 51.0315 70.7146 51.1766C70.7326 51.757 67.2524 57.7523 64.2857 62.2264C56.6625 73.7104 43.6098 85.3577 27.434 95.0447C19.2176 99.9174 16.241 101.293 21.9041 97.5366C31.7526 91.0505 37.9709 85.7231 44.5955 78.2007C53.5115 68.0707 60.0823 54.6424 62.4433 41.7658C63.0676 38.2547 63.0661 38.2064 63.8761 39.2886C64.2818 39.8538 65.1007 41.2262 65.6537 42.3669Z" fill="black"/>
<path d="M33.0004 22.8158C32.9203 23.0126 32.7537 27.3774 32.6528 32.4661C32.4068 44.0011 31.5252 51.7352 29.3443 60.6822C27.5461 68.0647 27.3787 69.6209 28.2834 69.5856C29.5327 69.5368 31.3542 65.6885 33.1809 59.225C34.6604 54.0825 35.2622 49.846 35.468 42.5741C35.8021 32.4885 34.3024 20.2952 33.0004 22.8158Z" fill="black"/>
<path d="M86.726 41.737C86.4009 42.3793 85.4821 44.7396 84.6464 46.9998C81.5843 55.3517 76.3833 64.2713 69.0848 73.7087C65.1022 78.8036 64.4149 80.2832 65.9657 80.2226C67.0427 80.1806 72.3608 75.0336 75.3871 71.0898C78.1238 67.5448 82.7458 59.4226 84.6295 54.797C87.1159 48.7436 88.8901 40.5872 87.6838 40.6343C87.4684 40.6427 87.0526 41.1432 86.726 41.737Z" fill="black"/>
<path d="M18.1806 80.391C16.3556 82.7382 16.053 84.1059 17.3023 84.0572C18.1208 84.0252 21.1396 79.8396 21.1066 78.7755C21.0676 77.518 19.8794 78.1455 18.1806 80.391Z" fill="black"/>
<path d="M49.9496 88.1099C47.8316 89.3547 46.4846 90.4243 46.4996 90.9079C46.5311 91.9237 47.3897 91.7933 50.6618 90.2128C53.7631 88.6874 55.2735 87.321 54.8172 86.5155C54.3178 85.7118 53.633 85.8838 49.9496 88.1099Z" fill="black"/>
</svg>
